# xmcd CD database file
#
# Track frame offsets:
#	150
#	29845
#	60954
#	96512
#	130514
#	157779
#	187060
#	208416
#	237850
#	261186
#
# Disc length: 3889 seconds
#
# Revision: 0
# Processed by: cddbd v1.4PL0 Copyright (c) Steve Scherf et al.
# Submitted via: CDex 1.50beta10
#
DISCID=8b0f2f0a
DTITLE=Jonas Johansen - Please move
DYEAR=1999
DGENRE=Jazz
TTITLE0=Invincible
TTITLE1=Bush Beat
TTITLE2=Good Day New Life
TTITLE3=Skylark
TTITLE4=Sorry I'm Happy
TTITLE5=American Highway
TTITLE6=Lights
TTITLE7=Dancing TIme
TTITLE8=Silent Beauty
TTITLE9=Hobo Hee Haw
EXTD=YEAR: 1999
EXTT0=
EXTT1=
EXTT2=
EXTT3=
EXTT4=
EXTT5=
EXTT6=
EXTT7=
EXTT8=
EXTT9=
PLAYORDER=
